<?xml version="1.0" encoding="UTF-8" standalone="no"?>
<svg
   xmlns:dc="http://purl.org/dc/elements/1.1/"
   xmlns:cc="http://creativecommons.org/ns#"
   xmlns:rdf="http://www.w3.org/1999/02/22-rdf-syntax-ns#"
   xmlns:svg="http://www.w3.org/2000/svg"
   xmlns="http://www.w3.org/2000/svg"
   viewBox="0 0 239.08 55.053333"
   height="55.053333"
   width="239.08"
   xml:space="preserve"
   id="svg2"
   version="1.1"><metadata
     id="metadata8"><rdf:RDF><cc:Work
         rdf:about=""><dc:format>image/svg+xml</dc:format><dc:type
           rdf:resource="http://purl.org/dc/dcmitype/StillImage" /></cc:Work></rdf:RDF></metadata><defs
     id="defs6" /><g
     transform="matrix(1.3333333,0,0,-1.3333333,0,55.053333)"
     id="g10"><g
       transform="scale(0.1)"
       id="g12"><path
         id="path14"
         style="fill:#040606;fill-opacity:1;fill-rule:nonzero;stroke:none"
         d="m 1678.81,277.469 c 0,24.051 -15.55,41.094 -49.15,41.094 h -60.68 v -79.192 h 56.17 c 31.09,0 53.66,13.535 53.66,38.098 z M 1393.52,167.418 C 1381.76,63.5508 1314.62,-0.00390625 1210.02,-0.00390625 1105.4,-0.00390625 1038.25,63.5898 1026.5,167.508 l -66.52,-0.039 v -155.6252 0 H 865.254 V 239.637 h 161.796 c 13.18,101.211 79.89,162.933 182.97,162.933 103.02,0 169.7,-61.644 182.94,-162.73 l 67.7,-0.086 v 150.98 h 181.54 c 126.37,0 150.94,-60.14 150.94,-109.254 v 0 c 0,-47.121 -29.59,-78.691 -71.71,-95.222 l 70.72,-174.4142 h -120.36 l -53.67,155.3592 h -49.14 V 11.8438 H 1460.66 V 167.469 l -67.14,-0.051" /><path
         id="path16"
         style="fill:#ffffff;fill-opacity:1;fill-rule:nonzero;stroke:none"
         d="m 1278.31,201.285 c 0,98.582 -25.16,124.258 -68.29,124.258 -44.67,0 -68.29,-30.293 -68.29,-124.258 0,-104.2381 30.29,-124.2577 68.29,-124.2577 37.48,0 68.29,20.0196 68.29,124.2577 v 0" /><path
         id="path18"
         style="fill:#ee2549;fill-opacity:1;fill-rule:nonzero;stroke:none"
         d="m 978.73,341.637 c 0,36.5 -29.589,66.09 -66.093,66.09 -36.504,0 -66.094,-29.59 -66.094,-66.09 0,-36.504 29.59,-66.094 66.094,-66.094 36.504,0 66.093,29.59 66.093,66.094 v 0" /><path
         id="path20"
         style="fill:#040606;fill-opacity:1;fill-rule:nonzero;stroke:none"
         d="m 7.66406,240.34 c 4.15624,-4.594 9.38674,-7.68 13.96094,-7.68 8.9414,0 15.6523,5.863 15.6523,22.59 0,14.055 -6.0742,21.73 -15.6523,21.73 -4.9023,0 -8.5273,-2.14 -13.96094,-7.46 z M 0,206.676 v 75.84 h 7.66406 v -6.504 h 0.21875 c 2.86719,4.148 9.05079,7.566 14.38279,7.566 9.7969,0 22.6875,-6.598 22.6875,-28.765 0,-21.516 -12.8906,-28.75 -22.2578,-28.75 -5.2305,0 -10.3398,2.656 -14.60155,6.171 l -0.42969,0.211 V 206.676 H 0" /><path
         id="path22"
         style="fill:#040606;fill-opacity:1;fill-rule:nonzero;stroke:none"
         d="m 91.2188,259.93 c 0,10.222 -4.8985,17.05 -13.2032,17.05 -9.2656,0 -14.2734,-6.828 -14.9101,-17.05 z m 9.3752,-20.989 c -3.6292,-6.281 -8.7346,-12.878 -21.2971,-12.878 -12.3594,0 -24.0781,8.511 -24.0781,28.75 0,17.898 8.9414,28.765 22.5781,28.765 11.5078,0 21.0898,-7.461 21.0898,-25.144 v -5.11 H 62.8828 c 0,-12.144 7.2461,-20.664 16.4141,-20.664 6.8164,0 12.1328,3.625 15.3242,9.375 l 5.9729,-3.094" /><path
         id="path24"
         style="fill:#040606;fill-opacity:1;fill-rule:nonzero;stroke:none"
         d="m 112.473,282.516 h 7.668 v -10.977 h 0.218 c 4.262,7.57 8.84,11.824 18.004,11.824 v -7.664 c -9.593,-0.215 -14.601,-6.504 -18.222,-17.898 v -30.676 h -7.668 v 55.391" /><path
         id="path26"
         style="fill:#040606;fill-opacity:1;fill-rule:nonzero;stroke:none"
         d="m 230.234,411.852 v -7.243 h -37.07 V 378.84 h 27.473 v -7.25 h -27.473 v -36.641 h -8.527 v 76.903 h 45.597" /><path
         id="path28"
         style="fill:#040606;fill-opacity:1;fill-rule:nonzero;stroke:none"
         d="m 258.129,384.801 c -9.164,0 -15.02,-7.887 -15.02,-22.156 0,-14.278 5.856,-22.161 15.02,-22.161 9.16,0 15.016,7.883 15.016,22.161 0,14.269 -5.856,22.156 -15.016,22.156 z m 0,-50.918 c -15.121,0 -22.695,12.785 -22.695,28.762 0,15.976 7.574,28.757 22.695,28.757 15.117,0 22.691,-12.781 22.691,-28.757 0,-15.977 -7.574,-28.762 -22.691,-28.762" /><path
         id="path30"
         style="fill:#040606;fill-opacity:1;fill-rule:nonzero;stroke:none"
         d="m 302.117,390.34 v -7.457 h 0.211 c 4.363,4.898 10.113,8.519 16.395,8.519 8.215,0 15.984,-4.261 15.984,-16.191 v -40.262 h -7.668 v 40.047 c 0,7.356 -3.519,9.805 -9.059,9.805 -5.746,0 -12.355,-4.688 -15.863,-8.414 v -41.438 h -7.676 v 55.391 h 7.676" /><path
         id="path32"
         style="fill:#040606;fill-opacity:1;fill-rule:nonzero;stroke:none"
         d="m 386.137,377.129 c -4.16,4.582 -9.371,7.672 -13.946,7.672 -8.957,0 -15.668,-5.86 -15.668,-22.582 0,-14.059 6.075,-21.735 15.668,-21.735 4.887,0 8.512,2.141 13.946,7.461 z m 7.668,34.723 v -64.766 c 0,-4.043 -0.211,-8.086 0.425,-12.137 h -7.023 l -1.07,5.438 c -2.555,-3.524 -7.989,-6.504 -14.586,-6.504 -9.797,0 -22.696,6.601 -22.696,28.762 0,21.515 12.899,28.757 22.266,28.757 5.211,0 10.34,-2.66 14.586,-6.179 l 0.43,-0.207 v 26.836 h 7.668" /><path
         id="path34"
         style="fill:#040606;fill-opacity:1;fill-rule:nonzero;stroke:none"
         d="m 441.074,364.883 c -17.57,-3.09 -26.195,-8.207 -26.195,-15.871 0,-5.117 4.894,-8.528 9.144,-8.528 5.54,0 12.582,4.055 17.051,9.161 z m -32.269,14.801 c 3.5,6.39 10.32,11.718 20.758,11.718 9.371,0 19.175,-4.472 19.175,-16.609 v -27.922 c 0,-6.062 0.532,-9.051 1.274,-11.922 h -7.871 l -0.86,7.676 c -3.832,-4.27 -10.008,-8.742 -18.312,-8.742 -8.528,0 -15.774,5.117 -15.774,15.234 0,12.145 9.27,18.207 33.879,22.582 v 2.981 c 0,7.347 -4.797,10.121 -11.406,10.121 -8.512,0 -12.668,-4.903 -14.156,-8.629 l -6.707,3.512" /><path
         id="path36"
         style="fill:#040606;fill-opacity:1;fill-rule:nonzero;stroke:none"
         d="m 501.195,334.949 h -40.902 v 5.535 l 30.254,43.246 h -27.266 v 6.61 h 37.703 v -5.539 l -30.254,-43.25 h 30.465 v -6.602" /><path
         id="path38"
         style="fill:#040606;fill-opacity:1;fill-rule:nonzero;stroke:none"
         d="m 514.145,390.34 h 7.664 v -55.391 h -7.664 z m 7.664,22.582 v -9.164 h -7.664 v 9.164 h 7.664" /><path
         id="path40"
         style="fill:#040606;fill-opacity:1;fill-rule:nonzero;stroke:none"
         d="m 558.938,384.801 c -9.165,0 -15.012,-7.887 -15.012,-22.156 0,-14.278 5.847,-22.161 15.012,-22.161 9.167,0 15.015,7.883 15.015,22.161 0,14.269 -5.848,22.156 -15.015,22.156 z m 0,-50.918 c -15.118,0 -22.696,12.785 -22.696,28.762 0,15.976 7.578,28.757 22.696,28.757 15.125,0 22.699,-12.781 22.699,-28.757 0,-15.977 -7.574,-28.762 -22.699,-28.762" /><path
         id="path42"
         style="fill:#040606;fill-opacity:1;fill-rule:nonzero;stroke:none"
         d="m 602.934,390.34 v -7.457 h 0.203 c 4.367,4.898 10.121,8.519 16.398,8.519 8.211,0 15.981,-4.261 15.981,-16.191 v -40.262 h -7.661 v 40.047 c 0,7.356 -3.519,9.805 -9.062,9.805 -5.746,0 -12.359,-4.688 -15.859,-8.414 v -41.438 h -7.68 v 55.391 h 7.68" /><path
         id="path44"
         style="fill:#040606;fill-opacity:1;fill-rule:nonzero;stroke:none"
         d="m 685.332,367.754 c 0,10.23 -4.902,17.047 -13.203,17.047 -9.27,0 -14.274,-6.817 -14.914,-17.047 z m 9.367,-20.981 c -3.621,-6.289 -8.726,-12.89 -21.297,-12.89 -12.351,0 -24.074,8.527 -24.074,28.762 0,17.894 8.942,28.757 22.574,28.757 11.516,0 21.09,-7.457 21.09,-25.136 v -5.114 h -36 c 0,-12.14 7.25,-20.668 16.41,-20.668 6.821,0 12.141,3.633 15.328,9.375 l 5.969,-3.086" /><path
         id="path46"
         style="fill:#040606;fill-opacity:1;fill-rule:nonzero;stroke:none"
         d="m 192.633,304.027 v -76.902 h -7.668 v 76.902 h 7.668" /><path
         id="path48"
         style="fill:#040606;fill-opacity:1;fill-rule:nonzero;stroke:none"
         d="m 222.676,292.313 -6.715,-15.118 h -4.469 l 5.004,15.118 h -4.262 v 11.714 h 10.442 v -11.714" /><path
         id="path50"
         style="fill:#040606;fill-opacity:1;fill-rule:nonzero;stroke:none"
         d="m 252.441,304.027 v -76.902 h -8.511 v 76.902 h 8.511" /><path
         id="path52"
         style="fill:#040606;fill-opacity:1;fill-rule:nonzero;stroke:none"
         d="m 273.813,241.18 c 3.621,-5.215 8.941,-8.52 15.875,-8.52 8.304,0 11.925,4.477 11.925,9.16 0,14.067 -32.804,6.606 -32.172,26.848 0.313,9.578 7.668,15.02 18.317,14.91 7.246,-0.105 15.238,-4.051 18.965,-9.695 l -5.332,-4.688 c -4.25,5.227 -8.301,7.785 -14.274,7.785 -6.488,0 -10.008,-3.312 -10.008,-8.214 0,-12.032 32.168,-5.848 32.168,-26.512 0,-10.766 -9.371,-16.191 -19.382,-16.191 -8.625,0 -17.051,3.726 -22.157,10.546 l 6.075,4.571" /><path
         id="path54"
         style="fill:#040606;fill-opacity:1;fill-rule:nonzero;stroke:none"
         d="m 324.961,282.516 v 18.214 h 7.664 v -18.214 h 12.789 v -6.614 h -12.789 v -39.414 c 0,-2.547 1.813,-3.828 6.281,-3.828 2.559,0 4.797,0.219 6.821,0.539 v -6.289 c -1.383,-0.43 -4.473,-0.847 -8.946,-0.847 -8.316,0 -11.82,2.128 -11.82,9.16 v 40.679 h -9.059 v 6.614 h 9.059" /><path
         id="path56"
         style="fill:#040606;fill-opacity:1;fill-rule:nonzero;stroke:none"
         d="m 358.973,282.516 h 7.664 v -55.391 h -7.664 z m 7.664,22.578 v -9.16 h -7.664 v 9.16 h 7.664" /><path
         id="path58"
         style="fill:#040606;fill-opacity:1;fill-rule:nonzero;stroke:none"
         d="m 387.902,282.516 v 18.214 h 7.664 v -18.214 h 12.786 v -6.614 h -12.786 v -39.414 c 0,-2.547 1.817,-3.828 6.282,-3.828 2.554,0 4.8,0.219 6.82,0.539 v -6.289 c -1.383,-0.43 -4.469,-0.847 -8.941,-0.847 -8.317,0 -11.825,2.128 -11.825,9.16 v 40.679 h -9.054 v 6.614 h 9.054" /><path
         id="path60"
         style="fill:#040606;fill-opacity:1;fill-rule:nonzero;stroke:none"
         d="m 453.551,227.125 v 7.449 h -0.207 c -4.371,-4.898 -10.133,-8.511 -16.41,-8.511 -8.2,0 -15.985,4.257 -15.985,16.191 v 40.262 h 7.68 v -40.047 c 0,-7.356 3.504,-9.809 9.047,-9.809 5.762,0 12.351,4.692 15.875,8.418 v 41.438 h 7.664 v -55.391 h -7.664" /><path
         id="path62"
         style="fill:#040606;fill-opacity:1;fill-rule:nonzero;stroke:none"
         d="m 481.754,282.516 v 18.214 h 7.664 v -18.214 h 12.789 v -6.614 h -12.789 v -39.414 c 0,-2.547 1.812,-3.828 6.285,-3.828 2.555,0 4.793,0.219 6.817,0.539 v -6.289 c -1.383,-0.43 -4.473,-0.847 -8.942,-0.847 -8.32,0 -11.824,2.128 -11.824,9.16 v 40.679 h -9.059 v 6.614 h 9.059" /><path
         id="path64"
         style="fill:#040606;fill-opacity:1;fill-rule:nonzero;stroke:none"
         d="m 532.047,276.98 c -9.168,0 -15.024,-7.89 -15.024,-22.167 0,-14.27 5.856,-22.153 15.024,-22.153 9.156,0 15.012,7.883 15.012,22.153 0,14.277 -5.856,22.167 -15.012,22.167 z m 0,-50.917 c -15.125,0 -22.699,12.781 -22.699,28.75 0,15.984 7.574,28.765 22.699,28.765 15.113,0 22.687,-12.781 22.687,-28.765 0,-15.969 -7.574,-28.75 -22.687,-28.75" /><path
         id="path66"
         style="fill:#040606;fill-opacity:1;fill-rule:nonzero;stroke:none"
         d="m 200.617,169.137 c -9.164,0 -15.012,-7.879 -15.012,-22.157 0,-14.269 5.848,-22.152 15.012,-22.152 9.168,0 15.016,7.883 15.016,22.152 0,14.278 -5.848,22.157 -15.016,22.157 z m 0,-50.907 c -15.113,0 -22.691,12.782 -22.691,28.75 0,15.985 7.578,28.758 22.691,28.758 15.125,0 22.696,-12.773 22.696,-28.758 0,-15.968 -7.571,-28.75 -22.696,-28.75" /><path
         id="path68"
         style="fill:#040606;fill-opacity:1;fill-rule:nonzero;stroke:none"
         d="m 244.598,174.684 v -7.461 h 0.207 c 4.363,4.902 10.117,8.515 16.394,8.515 8.215,0 15.981,-4.258 15.981,-16.179 v -40.266 h -7.66 v 40.051 c 0,7.344 -3.52,9.793 -9.063,9.793 -5.746,0 -12.359,-4.676 -15.859,-8.407 v -41.437 h -7.68 v 55.391 h 7.68" /><path
         id="path70"
         style="fill:#040606;fill-opacity:1;fill-rule:nonzero;stroke:none"
         d="m 326.785,158.16 c -2.137,6.719 -6.504,10.977 -13.109,10.977 -9.477,0 -15.02,-8.086 -15.02,-22.157 0,-14.054 5.543,-22.152 15.02,-22.152 7.035,0 10.972,2.336 15.234,10.227 l 6.184,-2.774 c -5.543,-9.367 -10.446,-14.051 -21.418,-14.051 -13.844,0 -22.68,10.86 -22.68,28.75 0,17.899 8.836,28.758 22.68,28.758 11.406,0 16.722,-6.386 20.238,-15.008 l -7.129,-2.57" /><path
         id="path72"
         style="fill:#040606;fill-opacity:1;fill-rule:nonzero;stroke:none"
         d="m 367.008,169.137 c -9.164,0 -15.016,-7.879 -15.016,-22.157 0,-14.269 5.852,-22.152 15.016,-22.152 9.164,0 15.012,7.883 15.012,22.152 0,14.278 -5.848,22.157 -15.012,22.157 z m 0,-50.907 c -15.121,0 -22.692,12.782 -22.692,28.75 0,15.985 7.571,28.758 22.692,28.758 15.121,0 22.691,-12.773 22.691,-28.758 0,-15.968 -7.57,-28.75 -22.691,-28.75" /><path
         id="path74"
         style="fill:#040606;fill-opacity:1;fill-rule:nonzero;stroke:none"
         d="m 411.887,196.195 v -76.902 h -7.66 v 76.902 h 7.66" /><path
         id="path76"
         style="fill:#040606;fill-opacity:1;fill-rule:nonzero;stroke:none"
         d="m 449.035,169.137 c -9.164,0 -15.019,-7.879 -15.019,-22.157 0,-14.269 5.855,-22.152 15.019,-22.152 9.16,0 15.016,7.883 15.016,22.152 0,14.278 -5.856,22.157 -15.016,22.157 z m 0,-50.907 c -15.121,0 -22.691,12.782 -22.691,28.75 0,15.985 7.57,28.758 22.691,28.758 15.117,0 22.692,-12.773 22.692,-28.758 0,-15.968 -7.575,-28.75 -22.692,-28.75" /><path
         id="path78"
         style="fill:#040606;fill-opacity:1;fill-rule:nonzero;stroke:none"
         d="m 502.191,169.137 c -8.75,0 -13.429,-5.535 -13.429,-12.774 0,-7.351 5.75,-12.793 14.273,-12.793 8.735,0 13.203,5.762 13.203,12.364 0,8.086 -4.675,13.203 -14.047,13.203 z m -0.328,-47.5 c -12.031,0 -15.441,-5.332 -15.441,-9.27 0,-4.156 2.551,-6.929 17.894,-6.929 9.161,0 16.614,2.566 16.723,7.996 -0.109,5.429 -5.644,8.203 -19.176,8.203 z m 26.305,47.5 c -3.195,0 -6.598,-0.528 -8.512,-1.485 1.586,-1.922 3.832,-6.179 3.832,-11.289 0,-10.976 -9.058,-19.394 -20.242,-19.394 -4.473,0 -6.816,0.644 -9.805,1.496 -2.968,-0.852 -4.367,-2.668 -4.367,-5.117 0,-2.551 1.813,-4.043 4.594,-4.043 26.195,0 34.617,-4.692 34.617,-15.559 0,-8.086 -7.988,-14.9101 -25.25,-14.9101 -15.547,0 -23.867,4.2661 -23.867,13.4261 0,5.539 3.418,8.203 9.391,11.289 -4.262,1.277 -6.938,4.582 -6.938,7.883 0,4.793 3.207,6.812 7.453,9.48 -5.215,3.945 -7.558,9.375 -7.558,15.449 0,11.707 9.164,19.375 20.988,19.375 5.965,0 10.113,-1.269 13.734,-3.828 3.317,2.344 7.785,4.473 11.93,4.903 v -7.676" /><path
         id="path80"
         style="fill:#040606;fill-opacity:1;fill-rule:nonzero;stroke:none"
         d="m 540.586,174.684 h 7.66 v -55.391 h -7.66 z m 7.66,22.578 v -9.16 h -7.66 v 9.16 h 7.66" /><path
         id="path82"
         style="fill:#040606;fill-opacity:1;fill-rule:nonzero;stroke:none"
         d="m 598.73,158.16 c -2.14,6.719 -6.503,10.977 -13.117,10.977 -9.476,0 -15.015,-8.086 -15.015,-22.157 0,-14.054 5.539,-22.152 15.015,-22.152 7.043,0 10.977,2.336 15.239,10.227 l 6.179,-2.774 c -5.539,-9.367 -10.441,-14.051 -21.418,-14.051 -13.843,0 -22.679,10.86 -22.679,28.75 0,17.899 8.836,28.758 22.679,28.758 11.407,0 16.727,-6.386 20.246,-15.008 l -7.129,-2.57" /><path
         id="path84"
         style="fill:#040606;fill-opacity:1;fill-rule:nonzero;stroke:none"
         d="m 638.949,169.137 c -9.164,0 -15.015,-7.879 -15.015,-22.157 0,-14.269 5.851,-22.152 15.015,-22.152 9.16,0 15.016,7.883 15.016,22.152 0,14.278 -5.856,22.157 -15.016,22.157 z m 0,-50.907 c -15.121,0 -22.695,12.782 -22.695,28.75 0,15.985 7.574,28.758 22.695,28.758 15.117,0 22.692,-12.773 22.692,-28.758 0,-15.968 -7.575,-28.75 -22.692,-28.75" /><path
         id="path86"
         style="fill:#040606;fill-opacity:1;fill-rule:nonzero;stroke:none"
         d="m 216.172,53.6484 c -4.16,4.5821 -9.371,7.668 -13.945,7.668 -8.957,0 -15.672,-5.8633 -15.672,-22.582 0,-14.0586 6.078,-21.7266 15.672,-21.7266 4.882,0 8.507,2.1289 13.945,7.4531 z m 7.66,34.7149 V 23.6094 c 0,-4.0508 -0.203,-8.0938 0.434,-12.1485 h -7.028 l -1.066,5.4414 c -2.555,-3.5156 -7.992,-6.496 -14.586,-6.496 -9.805,0 -22.695,6.6015 -22.695,28.75 0,21.5234 12.89,28.7617 22.265,28.7617 5.211,0 10.336,-2.6563 14.586,-6.1836 l 0.43,-0.2071 v 26.836 h 7.66" /><path
         id="path88"
         style="fill:#040606;fill-opacity:1;fill-rule:nonzero;stroke:none"
         d="m 242.352,66.8516 h 7.668 V 11.4609 h -7.668 z m 7.668,22.5898 v -9.1719 h -7.668 v 9.1719 h 7.668" /><path
         id="path90"
         style="fill:#040606;fill-opacity:1;fill-rule:nonzero;stroke:none"
         d="m 283.867,66.8516 h 7.66 V 55.875 h 0.227 c 4.262,7.5703 8.836,11.8242 18,11.8242 v -7.664 C 300.16,59.8203 295.156,53.543 291.527,42.1445 V 11.4609 h -7.66 v 55.3907" /><path
         id="path92"
         style="fill:#040606;fill-opacity:1;fill-rule:nonzero;stroke:none"
         d="m 322.121,66.8516 h 7.668 V 11.4609 h -7.668 z m 7.668,22.5898 v -9.1719 h -7.668 v 9.1719 h 7.668" /><path
         id="path94"
         style="fill:#040606;fill-opacity:1;fill-rule:nonzero;stroke:none"
         d="m 380.273,50.3398 c -2.14,6.7188 -6.511,10.9766 -13.117,10.9766 -9.476,0 -15.015,-8.0976 -15.015,-22.1601 0,-14.0625 5.539,-22.1485 15.015,-22.1485 7.035,0 10.977,2.336 15.235,10.2266 l 6.183,-2.7735 c -5.543,-9.375 -10.441,-14.0546 -21.418,-14.0546 -13.843,0 -22.679,10.8593 -22.679,28.75 0,17.9023 8.836,28.7617 22.679,28.7617 11.407,0 16.727,-6.3907 20.246,-15.0196 l -7.129,-2.5586" /><path
         id="path96"
         style="fill:#040606;fill-opacity:1;fill-rule:nonzero;stroke:none"
         d="m 433.973,44.2734 c 0,10.2227 -4.899,17.043 -13.203,17.043 -9.266,0 -14.274,-6.8203 -14.911,-17.043 z m 9.375,-20.9882 c -3.629,-6.2774 -8.735,-12.8789 -21.297,-12.8789 -12.36,0 -24.078,8.5156 -24.078,28.75 0,17.9023 8.941,28.7617 22.578,28.7617 11.508,0 21.09,-7.4532 21.09,-25.1407 v -5.1054 h -36.004 c 0,-12.1485 7.25,-20.6641 16.414,-20.6641 6.816,0 12.133,3.625 15.328,9.3633 l 5.969,-3.0859" /><path
         id="path98"
         style="fill:#040606;fill-opacity:1;fill-rule:nonzero;stroke:none"
         d="m 455.227,66.8516 h 7.664 V 55.875 h 0.222 c 4.266,7.5703 8.84,11.8242 18.004,11.8242 v -7.664 C 471.523,59.8203 466.516,53.543 462.891,42.1445 V 11.4609 h -7.664 v 55.3907" /><path
         id="path100"
         style="fill:#040606;fill-opacity:1;fill-rule:nonzero;stroke:none"
         d="m 523.551,50.3398 c -2.141,6.7188 -6.512,10.9766 -13.117,10.9766 -9.477,0 -15.016,-8.0976 -15.016,-22.1601 0,-14.0625 5.539,-22.1485 15.016,-22.1485 7.039,0 10.976,2.336 15.238,10.2266 l 6.176,-2.7735 c -5.535,-9.375 -10.438,-14.0546 -21.414,-14.0546 -13.844,0 -22.68,10.8593 -22.68,28.75 0,17.9023 8.836,28.7617 22.68,28.7617 11.406,0 16.722,-6.3907 20.246,-15.0196 l -7.129,-2.5586" /><path
         id="path102"
         style="fill:#040606;fill-opacity:1;fill-rule:nonzero;stroke:none"
         d="M 576.105,41.4023 C 558.539,38.3086 549.91,33.1914 549.91,25.5234 c 0,-5.1054 4.903,-8.5156 9.145,-8.5156 5.543,0 12.586,4.043 17.05,9.1485 z m -32.269,14.793 c 3.508,6.3985 10.324,11.7227 20.762,11.7227 9.371,0 19.175,-4.4727 19.175,-16.6133 V 23.3945 c 0,-6.0742 0.532,-9.0507 1.274,-11.9336 h -7.871 l -0.86,7.6758 c -3.832,-4.2695 -10.007,-8.7304 -18.312,-8.7304 -8.524,0 -15.774,5.1093 -15.774,15.2265 0,12.1445 9.266,18.2227 33.875,22.586 v 2.9765 c 0,7.3477 -4.792,10.1211 -11.406,10.1211 -8.508,0 -12.664,-4.9062 -14.148,-8.6328 l -6.715,3.5117" /></g></g></svg>