<svg xmlns="http://www.w3.org/2000/svg" viewBox="0 0 94.66 40.77"><defs><style>.cls-1{fill:#fff;}.cls-2{fill:#f03;}</style></defs><title>iOR</title><g id="Layer_2" data-name="Layer 2"><g id="fondazione_ior_web"><path d="M54.7,24c-1.18,10.39-7.89,16.74-18.35,16.74S19.17,34.41,18,24H11.34V39.59H1.87V16.81H18.05C19.37,6.69,26,.52,36.35.52s17,6.16,18.29,16.27h6.77V1.7H79.57c12.63,0,15.09,6,15.09,10.92h0c0,4.72-3,7.87-7.17,9.53l7.07,17.44h-12L77.16,24.05H72.24V39.59H61.41V24ZM83.23,13c0-2.41-1.56-4.11-4.92-4.11H72.24v7.92h5.62c3.11,0,5.37-1.36,5.37-3.81Z"/><path class="cls-1" d="M43.18,20.64c0-9.85-2.52-12.42-6.83-12.42-4.47,0-6.83,3-6.83,12.42,0,10.43,3,12.43,6.83,12.43s6.83-2,6.83-12.43Z"/><path class="cls-2" d="M13.22,6.61a6.61,6.61,0,1,0-6.61,6.61,6.61,6.61,0,0,0,6.61-6.61Z"/></g></g></svg>