<svg id="Layer_1" data-name="Layer 1" xmlns="http://www.w3.org/2000/svg" viewBox="0 0 98.04 45.48"><defs><style>.cls-1{fill:#231f20;}.cls-2{fill:none;stroke:#231f20;stroke-width:0.3px;}</style></defs><title>USI-IOR_logo-statico-15-orr-eng</title><path class="cls-1" d="M38.49,20.85l-1.35-1.93A4.09,4.09,0,0,0,39,15.11a3.61,3.61,0,0,0-.21-1.32,1.46,1.46,0,0,0-1.41-1,1.26,1.26,0,0,0-1.22.92,9.73,9.73,0,0,0-.38,1.43l-.31,1.48A11.57,11.57,0,0,1,35,18.12a3.12,3.12,0,0,1-3,2.07c-2.33,0-3.83-2-3.83-4.85a5.75,5.75,0,0,1,2.49-4.94l1.41,1.88a3.56,3.56,0,0,0-1.83,3.18c0,1.24.56,2.32,1.5,2.32s1.25-1.15,1.46-2.27l.28-1.27c.35-1.65,1-4,3.65-4,2.82,0,4,2.61,4,5.22a8.57,8.57,0,0,1-.27,2.19,5.54,5.54,0,0,1-2.34,3.18m1-11.32h-11V7.27h9.07A21.25,21.25,0,1,0,7.09,36.88a4.66,4.66,0,0,1-.64-1.31,12,12,0,0,1-.24-3.39V22.08H9.38V32.49a5.91,5.91,0,0,0,.21,2.07c.65,1.63,2.43,1.82,3.43,1.82a4.12,4.12,0,0,0,2.72-.84c.93-.84.93-1.8.93-3.21V22.08h3.19V32.76c0,1.92,0,3.5-1.82,5a7.73,7.73,0,0,1-5.11,1.65,9.17,9.17,0,0,1-3-.45,6,6,0,0,1-1.08-.49,21.26,21.26,0,0,0,30.64-29"/><rect class="cls-1" x="52.11" y="1.54" width="2.13" height="42.52"/><line class="cls-2" x1="96.75" y1="1.54" x2="96.75" y2="44.06"/><path class="cls-1" d="M57.36,6.73V2.49h.78V6.73Z"/><path class="cls-1" d="M59.89,3.73v.35a1.14,1.14,0,0,1,.92-.44.91.91,0,0,1,1,1V6.73h-.71V5c0-.33-.08-.7-.52-.7a.56.56,0,0,0-.38.14c-.22.18-.28.43-.28.95v1.3h-.73v-3Z"/><path class="cls-1" d="M64.61,4.67a.86.86,0,0,0-.82-.46c-.13,0-.49,0-.49.32s.18.25.61.33l.48.09a.87.87,0,0,1,.81.84c0,.55-.52,1-1.35,1a2,2,0,0,1-1.44-.54L63,5.84a1,1,0,0,0,.86.38c.43,0,.59-.22.59-.35s-.17-.24-.44-.29l-.38-.06c-.23,0-1-.2-1-.9s.57-1,1.29-1a1.66,1.66,0,0,1,1.29.56Z"/><path class="cls-1" d="M65.63,3.73h.43V2.66h.72V3.73h.65v.51h-.65V5.73a.51.51,0,0,0,.07.31.42.42,0,0,0,.28.09,1.45,1.45,0,0,0,.3,0v.6a2.63,2.63,0,0,1-.52,0c-.64,0-.85-.23-.85-.72V4.24h-.43Z"/><path class="cls-1" d="M68.07,3.26V2.54h.71v.72Zm0,3.47v-3h.71v3Z"/><path class="cls-1" d="M69.35,3.73h.44V2.66h.72V3.73h.64v.51h-.64V5.73a.51.51,0,0,0,.07.31.4.4,0,0,0,.27.09,1.39,1.39,0,0,0,.3,0v.6a2.42,2.42,0,0,1-.51,0c-.64,0-.85-.23-.85-.72V4.24h-.44Z"/><path class="cls-1" d="M73.74,6.73V6.42a1.36,1.36,0,0,1-1,.38,1,1,0,0,1-.86-.4,1.29,1.29,0,0,1-.18-.79V3.73h.73V5.46c0,.28.07.66.59.66a.67.67,0,0,0,.58-.33,1.78,1.78,0,0,0,.11-.72V3.73h.72v3Z"/><path class="cls-1" d="M75,3.73h.44V2.66h.72V3.73h.64v.51H76.2V5.73a.45.45,0,0,0,.07.31.39.39,0,0,0,.27.09,1.45,1.45,0,0,0,.3,0v.6a2.54,2.54,0,0,1-.52,0c-.64,0-.84-.23-.84-.72V4.24H75Z"/><path class="cls-1" d="M78,5.37a.82.82,0,0,0,.85.75.87.87,0,0,0,.78-.42l.61.36a1.76,1.76,0,0,1-1.46.76,1.49,1.49,0,0,1-1.54-1.61,1.45,1.45,0,0,1,1.5-1.57c1.15,0,1.48.92,1.48,1.73Zm1.43-.53a.65.65,0,0,0-.67-.63.73.73,0,0,0-.74.63Z"/><path class="cls-1" d="M58.65,13.32a1.52,1.52,0,0,1-1.55-1.6,1.54,1.54,0,1,1,3.08,0A1.51,1.51,0,0,1,58.65,13.32Zm0-.66a.81.81,0,0,0,.78-.91.86.86,0,0,0-.81-1c-.42,0-.78.3-.78.91A.86.86,0,0,0,58.65,12.66Z"/><path class="cls-1" d="M61.71,10.74v2.49H61V10.74h-.45v-.51H61V9.82c0-.53.15-.83,1-.83a2.83,2.83,0,0,1,.41,0v.61l-.23,0c-.41,0-.42.23-.42.41v.21h.65v.51Z"/><path class="cls-1" d="M59.21,15.39a2,2,0,0,1,2,2.2,2,2,0,1,1-4.06,0A2.07,2.07,0,0,1,59.21,15.39Zm0,3.71a1.28,1.28,0,0,0,1.22-1.45c0-.75-.39-1.54-1.23-1.54S58,16.66,58,17.59C58,18.25,58.31,19.1,59.21,19.1Z"/><path class="cls-1" d="M62.8,16.73v.35a1.14,1.14,0,0,1,.92-.44.91.91,0,0,1,1,1v2.09H64V18c0-.33-.09-.7-.53-.7a.56.56,0,0,0-.38.14c-.21.18-.28.43-.28.95v1.3h-.73v-3Z"/><path class="cls-1" d="M68.22,18.88a1.41,1.41,0,0,1-1.36.94,1.49,1.49,0,0,1-1.48-1.59,1.52,1.52,0,0,1,1.52-1.59,1.39,1.39,0,0,1,1.29.85l-.64.3a.7.7,0,0,0-.69-.51c-.48,0-.73.43-.73.93s.27.94.75.94a.8.8,0,0,0,.73-.59Z"/><path class="cls-1" d="M70.26,19.82a1.53,1.53,0,0,1-1.56-1.6,1.54,1.54,0,1,1,1.56,1.6Zm0-.66a.81.81,0,0,0,.77-.91.86.86,0,0,0-.81-1c-.42,0-.77.3-.77.91A.85.85,0,0,0,70.26,19.16Z"/><path class="cls-1" d="M72.52,19.73V15.49h.73v4.24Z"/><path class="cls-1" d="M75.54,19.82a1.59,1.59,0,0,1,0-3.18,1.59,1.59,0,0,1,0,3.18Zm0-.66a.81.81,0,0,0,.77-.91.85.85,0,0,0-.81-1c-.42,0-.77.3-.77.91A.85.85,0,0,0,75.54,19.16Z"/><path class="cls-1" d="M80.54,19.58c0,.87-.59,1.15-1.44,1.15-1.12,0-1.29-.54-1.38-.94h.79c.07.32.44.37.6.37.43,0,.72-.14.72-.66v-.27a1.39,1.39,0,0,1-.91.32,1.27,1.27,0,0,1-1.29-1.42A1.35,1.35,0,0,1,79,16.64a1,1,0,0,1,.85.41v-.32h.71Zm-1.44-2.3a.75.75,0,0,0-.74.83.71.71,0,0,0,.75.79.71.71,0,0,0,.74-.77A.75.75,0,0,0,79.1,17.28Z"/><path class="cls-1" d="M83.87,16.73l-.8,2.73a2.37,2.37,0,0,1-.51,1.12.87.87,0,0,1-.61.18,1.82,1.82,0,0,1-.42,0v-.63a.65.65,0,0,0,.19,0c.4,0,.47-.25.49-.32l-1.08-3.06h.77L82.57,19l.56-2.24Z"/><path class="cls-1" d="M59.1,22a1.3,1.3,0,0,1,1.4,1.35,1.15,1.15,0,0,1-.83,1.16l.94,1.73H59.7l-.83-1.57h-.71v1.57h-.79V22Zm-.94,2h.61c.57,0,.93-.17.93-.67s-.31-.65-.82-.65h-.72Z"/><path class="cls-1" d="M61.85,24.87a.83.83,0,0,0,.85.75.88.88,0,0,0,.79-.42l.61.36a1.76,1.76,0,0,1-1.47.76,1.49,1.49,0,0,1-1.54-1.61,1.45,1.45,0,0,1,1.51-1.57c1.14,0,1.47.92,1.47,1.73Zm1.43-.53a.65.65,0,0,0-.67-.63.72.72,0,0,0-.73.63Z"/><path class="cls-1" d="M66.76,24.17a.86.86,0,0,0-.82-.46c-.14,0-.5.05-.5.32s.18.25.62.33l.48.09a.87.87,0,0,1,.81.84c0,.55-.53,1-1.35,1a1.93,1.93,0,0,1-1.44-.54l.54-.44a1,1,0,0,0,.86.38c.43,0,.59-.22.59-.35s-.17-.24-.45-.29L65.73,25c-.23-.05-1-.2-1-.9s.57-1,1.29-1a1.66,1.66,0,0,1,1.29.56Z"/><path class="cls-1" d="M68.65,24.87a.83.83,0,0,0,.85.75.86.86,0,0,0,.78-.42l.62.36a1.76,1.76,0,0,1-1.47.76,1.49,1.49,0,0,1-1.54-1.61,1.45,1.45,0,0,1,1.51-1.57c1.14,0,1.47.92,1.47,1.73Zm1.43-.53a.65.65,0,0,0-.67-.63.71.71,0,0,0-.73.63Z"/><path class="cls-1" d="M73.4,26.23l0-.24a1.43,1.43,0,0,1-.88.31,1,1,0,0,1-1.09-.92c0-.65.5-.91,1.07-1a9.13,9.13,0,0,0,.92-.22c0-.23-.07-.45-.52-.45s-.6.29-.6.45l-.73,0c0-.19,0-1,1.31-1,.88,0,1.26.32,1.26.85v1.75a.72.72,0,0,0,.13.49Zm0-1.5a1.86,1.86,0,0,1-.57.17c-.33.05-.66.12-.66.42s.13.36.49.36.74-.17.74-.54Z"/><path class="cls-1" d="M75.72,23.23v.42a1,1,0,0,1,.89-.49h.06v.74a.86.86,0,0,0-.9.55,1.63,1.63,0,0,0,0,.49v1.29H75v-3Z"/><path class="cls-1" d="M79.89,25.38a1.4,1.4,0,0,1-1.35.94,1.49,1.49,0,0,1-1.48-1.59,1.51,1.51,0,0,1,1.51-1.59,1.39,1.39,0,0,1,1.29.85l-.64.3a.68.68,0,0,0-.68-.51c-.49,0-.74.43-.74.93s.27.94.76.94a.78.78,0,0,0,.72-.59Z"/><path class="cls-1" d="M82.58,26.23V24.47c0-.44-.22-.65-.57-.65a.74.74,0,0,0-.75.75v1.66h-.72V22h.72v1.54a1.36,1.36,0,0,1,.95-.39,1,1,0,0,1,1.07,1.06v2Z"/></svg>