<svg id="Layer_1" data-name="Layer 1" xmlns="http://www.w3.org/2000/svg" viewBox="0 0 102.54 47.98"><defs><style>.cls-1{fill:#231f20;}.cls-2{fill:none;stroke:#231f20;stroke-width:0.3px;}</style></defs><title>USI-IOR_logo-statico-15-orr-ita</title><path class="cls-1" d="M41.49,23.19l-1.35-1.93A4.12,4.12,0,0,0,42,17.45a3.63,3.63,0,0,0-.21-1.33,1.48,1.48,0,0,0-1.41-1,1.26,1.26,0,0,0-1.22.92,10.21,10.21,0,0,0-.38,1.43l-.31,1.48A12.32,12.32,0,0,1,38,20.46a3.13,3.13,0,0,1-3,2.07c-2.33,0-3.83-2-3.83-4.86a5.76,5.76,0,0,1,2.49-4.94l1.41,1.88a3.57,3.57,0,0,0-1.83,3.18c0,1.24.56,2.32,1.5,2.32S36,19,36.22,17.85l.28-1.27c.35-1.66,1-4,3.65-4,2.82,0,4,2.61,4,5.22A8.52,8.52,0,0,1,43.83,20a5.55,5.55,0,0,1-2.34,3.19m1-11.33h-11V9.6h9.07A21.25,21.25,0,1,0,10.09,39.22a4.85,4.85,0,0,1-.64-1.32,11.82,11.82,0,0,1-.24-3.38V24.41h3.17V34.83a5.86,5.86,0,0,0,.21,2.06c.65,1.63,2.43,1.83,3.43,1.83a4.18,4.18,0,0,0,2.72-.84c.93-.84.93-1.8.93-3.22V24.41h3.19V35.09c0,1.92,0,3.51-1.82,5a7.75,7.75,0,0,1-5.11,1.66,8.92,8.92,0,0,1-3-.46,5.36,5.36,0,0,1-1.08-.49,21.26,21.26,0,0,0,30.64-29"/><rect class="cls-1" x="55.11" y="3.87" width="2.13" height="42.52"/><line class="cls-2" x1="99.75" y1="3.87" x2="99.75" y2="46.39"/><path class="cls-1" d="M60.36,9.06V4.83h.78V9.06Z"/><path class="cls-1" d="M64.12,7a.87.87,0,0,0-.82-.45c-.14,0-.5,0-.5.31s.18.26.62.34l.48.09a.84.84,0,0,1,.8.83c0,.56-.52,1-1.34,1a1.89,1.89,0,0,1-1.44-.54l.54-.44a1,1,0,0,0,.86.39c.43,0,.59-.23.59-.36s-.17-.24-.45-.29l-.37-.06c-.23,0-1-.19-1-.9s.57-1,1.29-1a1.69,1.69,0,0,1,1.29.56Z"/><path class="cls-1" d="M65.13,6.06h.44V5h.72V6.06h.64v.51h-.64V8.06a.56.56,0,0,0,.07.32.4.4,0,0,0,.27.09,1,1,0,0,0,.3,0V9a3.83,3.83,0,0,1-.51,0c-.64,0-.85-.23-.85-.72V6.57h-.44Z"/><path class="cls-1" d="M67.58,5.59V4.87h.71v.72Zm0,3.47v-3h.71v3Z"/><path class="cls-1" d="M68.86,6.06h.44V5H70V6.06h.64v.51H70V8.06a.49.49,0,0,0,.07.32.39.39,0,0,0,.27.09,1,1,0,0,0,.3,0V9a4,4,0,0,1-.52,0c-.64,0-.84-.23-.84-.72V6.57h-.44Z"/><path class="cls-1" d="M73.25,9.06V8.75a1.36,1.36,0,0,1-1,.38,1,1,0,0,1-.87-.39A1.37,1.37,0,0,1,71.24,8V6.06H72V7.79c0,.29.08.67.59.67a.63.63,0,0,0,.58-.34,1.61,1.61,0,0,0,.12-.72V6.06H74v3Z"/><path class="cls-1" d="M74.55,6.06H75V5h.72V6.06h.64v.51h-.64V8.06a.49.49,0,0,0,.07.32.39.39,0,0,0,.27.09,1,1,0,0,0,.3,0V9a4,4,0,0,1-.52,0c-.64,0-.84-.23-.84-.72V6.57h-.44Z"/><path class="cls-1" d="M78.3,9.15a1.53,1.53,0,0,1-1.56-1.6,1.54,1.54,0,1,1,3.08,0A1.5,1.5,0,0,1,78.3,9.15Zm0-.66a.81.81,0,0,0,.77-.91.86.86,0,0,0-.81-1c-.42,0-.77.31-.77.91A.85.85,0,0,0,78.3,8.49Z"/><path class="cls-1" d="M61.65,15.65a1.52,1.52,0,0,1-1.55-1.6,1.54,1.54,0,1,1,3.08,0A1.51,1.51,0,0,1,61.65,15.65Zm0-.66a.81.81,0,0,0,.78-.91.86.86,0,0,0-.81-1,.8.8,0,0,0-.78.91A.86.86,0,0,0,61.65,15Z"/><path class="cls-1" d="M64.64,12.56v.36a1.15,1.15,0,0,1,.92-.45.92.92,0,0,1,1,1v2.09h-.71V13.87c0-.32-.08-.7-.53-.7a.61.61,0,0,0-.37.14c-.22.18-.28.43-.28.95v1.3h-.73v-3Z"/><path class="cls-1" d="M70.05,14.71a1.4,1.4,0,0,1-1.35.94,1.49,1.49,0,0,1-1.48-1.59,1.51,1.51,0,0,1,1.51-1.59,1.39,1.39,0,0,1,1.29.85l-.64.3a.69.69,0,0,0-.68-.51c-.49,0-.74.44-.74.93s.27.94.76.94a.77.77,0,0,0,.72-.59Z"/><path class="cls-1" d="M72.09,15.65a1.59,1.59,0,0,1,0-3.18,1.51,1.51,0,0,1,1.54,1.58A1.5,1.5,0,0,1,72.09,15.65Zm0-.66a.81.81,0,0,0,.77-.91.86.86,0,0,0-.8-1,.8.8,0,0,0-.78.91A.85.85,0,0,0,72.09,15Z"/><path class="cls-1" d="M74.36,15.56V11.33h.73v4.23Z"/><path class="cls-1" d="M77.37,15.65a1.59,1.59,0,1,1,1.53-1.6A1.51,1.51,0,0,1,77.37,15.65Zm0-.66a.81.81,0,0,0,.78-.91.86.86,0,0,0-.81-1,.8.8,0,0,0-.78.91A.86.86,0,0,0,77.37,15Z"/><path class="cls-1" d="M82.37,15.41c0,.87-.59,1.15-1.44,1.15-1.12,0-1.29-.53-1.37-.93h.79c.06.31.43.37.6.37.42,0,.71-.15.71-.67v-.26a1.35,1.35,0,0,1-.9.32A1.28,1.28,0,0,1,79.46,14a1.35,1.35,0,0,1,1.36-1.49,1,1,0,0,1,.84.41v-.32h.71Zm-1.44-2.3a.74.74,0,0,0-.73.83.71.71,0,0,0,.74.79.69.69,0,0,0,.74-.76A.76.76,0,0,0,80.93,13.11Z"/><path class="cls-1" d="M83.28,12.09v-.72H84v.72Zm0,3.47v-3H84v3Z"/><path class="cls-1" d="M87.53,14.71a1.4,1.4,0,0,1-1.35.94,1.49,1.49,0,0,1-1.48-1.59,1.51,1.51,0,0,1,1.51-1.59,1.39,1.39,0,0,1,1.29.85l-.64.3a.69.69,0,0,0-.68-.51c-.49,0-.74.44-.74.93s.27.94.76.94a.76.76,0,0,0,.72-.59Z"/><path class="cls-1" d="M89.57,15.65a1.59,1.59,0,1,1,1.53-1.6A1.51,1.51,0,0,1,89.57,15.65Zm0-.66a.81.81,0,0,0,.78-.91.86.86,0,0,0-.81-1,.8.8,0,0,0-.78.91A.86.86,0,0,0,89.57,15Z"/><path class="cls-1" d="M62.27,22.06v-.29a1,1,0,0,1-.84.38,1.36,1.36,0,0,1-1.33-1.53c0-1.07.65-1.65,1.36-1.65a1.07,1.07,0,0,1,.81.34V17.83H63v4.23Zm-.71-.56c.39,0,.7-.33.7-.88s-.13-1-.69-1-.72.4-.72.9S61,21.5,61.56,21.5Z"/><path class="cls-1" d="M63.89,18.59v-.72h.72v.72Zm0,3.47v-3h.72v3Z"/><path class="cls-1" d="M61,25.56V26a1,1,0,0,1,.9-.49h.06v.73a.86.86,0,0,0-.9.56,1.32,1.32,0,0,0-.06.49v1.28h-.69v-3Z"/><path class="cls-1" d="M62.52,25.09v-.72h.71v.72Zm0,3.47v-3h.71v3Z"/><path class="cls-1" d="M66.77,27.71a1.4,1.4,0,0,1-1.35.94,1.49,1.49,0,0,1-1.48-1.59,1.52,1.52,0,0,1,1.52-1.59,1.39,1.39,0,0,1,1.28.85l-.64.3a.69.69,0,0,0-.68-.51c-.49,0-.74.44-.74.93s.27.94.76.94a.76.76,0,0,0,.72-.59Z"/><path class="cls-1" d="M68,27.21a.81.81,0,0,0,.84.74.88.88,0,0,0,.79-.41l.61.35a1.76,1.76,0,0,1-1.46.76A1.48,1.48,0,0,1,67.26,27a1.45,1.45,0,0,1,1.5-1.57c1.15,0,1.48.92,1.48,1.74Zm1.42-.53a.64.64,0,0,0-.67-.63.73.73,0,0,0-.73.63Z"/><path class="cls-1" d="M71.66,25.56V26a.94.94,0,0,1,.89-.49h.06v.73a.87.87,0,0,0-.9.56,1.57,1.57,0,0,0,0,.49v1.28H71v-3Z"/><path class="cls-1" d="M75.84,27.71a1.41,1.41,0,0,1-1.36.94A1.49,1.49,0,0,1,73,27.06a1.52,1.52,0,0,1,1.52-1.59,1.4,1.4,0,0,1,1.29.85l-.65.3a.69.69,0,0,0-.68-.51c-.49,0-.74.44-.74.93s.27.94.76.94a.76.76,0,0,0,.72-.59Z"/><path class="cls-1" d="M78.32,28.56l0-.23a1.51,1.51,0,0,1-.88.3,1,1,0,0,1-1.09-.92c0-.65.49-.91,1.06-1a6.14,6.14,0,0,0,.93-.22c0-.23-.07-.45-.52-.45s-.61.29-.61.45l-.73,0c0-.2.06-1,1.32-1,.88,0,1.26.33,1.26.85v1.76a.69.69,0,0,0,.13.48Zm0-1.49a2.19,2.19,0,0,1-.57.17c-.33,0-.66.11-.66.41s.13.36.49.36.74-.16.74-.54Z"/></svg>